<svg width="24" height="24" viewBox="0 0 24 24" fill="none" xmlns="http://www.w3.org/2000/svg">
<g clip-path="url(#clip0_449_206)">
<path fill-rule="evenodd" clip-rule="evenodd" d="M4.79995 1.59998C4.3756 1.59998 3.96864 1.76855 3.66858 2.0686C3.36852 2.36866 3.19995 2.77563 3.19995 3.19998V20.8C3.19995 21.2243 3.36852 21.6313 3.66858 21.9313C3.96864 22.2314 4.3756 22.4 4.79995 22.4H16.8C17.0121 22.4 17.2156 22.3157 17.3656 22.1657C17.5157 22.0156 17.6 21.8121 17.6 21.6C17.6 21.3878 17.5157 21.1843 17.3656 21.0343C17.2156 20.8843 17.0121 20.8 16.8 20.8H4.79995V3.19998H16.8C17.0121 3.19998 17.2156 3.11569 17.3656 2.96566C17.5157 2.81563 17.6 2.61215 17.6 2.39998C17.6 2.1878 17.5157 1.98432 17.3656 1.83429C17.2156 1.68426 17.0121 1.59998 16.8 1.59998H4.79995ZM20.1664 7.83358C20.0161 7.68336 19.8124 7.59896 19.6 7.59896C19.3875 7.59896 19.1838 7.68336 19.0336 7.83358C18.8833 7.98379 18.7989 8.18753 18.7989 8.39998C18.7989 8.61242 18.8833 8.81616 19.0336 8.96638L21.2688 11.2H10.4C10.1878 11.2 9.98429 11.2843 9.83427 11.4343C9.68424 11.5843 9.59995 11.7878 9.59995 12C9.59995 12.2121 9.68424 12.4156 9.83427 12.5657C9.98429 12.7157 10.1878 12.8 10.4 12.8H21.2688L19.0336 15.0336C18.8833 15.1838 18.7989 15.3875 18.7989 15.6C18.7989 15.8124 18.8833 16.0162 19.0336 16.1664C19.1838 16.3166 19.3875 16.401 19.6 16.401C19.8124 16.401 20.0161 16.3166 20.1664 16.1664L23.7664 12.5664C23.8409 12.4921 23.9 12.4038 23.9403 12.3066C23.9806 12.2094 24.0014 12.1052 24.0014 12C24.0014 11.8947 23.9806 11.7906 23.9403 11.6934C23.9 11.5962 23.8409 11.5079 23.7664 11.4336L20.1664 7.83358Z" fill="#1F2230"/>
</g>
<defs>
<clipPath id="clip0_449_206">
<rect width="24" height="24" fill="white"/>
</clipPath>
</defs>
</svg>
